<svg width="60" height="70" viewBox="0 0 60 70" fill="none" xmlns="http://www.w3.org/2000/svg">
<g filter="url(#filter0_di_3514_54)">
<rect x="17.9375" y="17.5" width="15" height="15" rx="2" fill="#84D52C"/>
<rect x="17.9375" y="17.5" width="15" height="15" rx="2" fill="url(#paint0_linear_3514_54)" fill-opacity="0.2"/>
</g>
<path d="M24.0923 28.4503C23.9349 28.4502 23.7791 28.419 23.6339 28.3584C23.4887 28.2978 23.3569 28.2091 23.2461 28.0974L20.982 25.8333C20.8684 25.7227 20.778 25.5907 20.7159 25.4449C20.6538 25.2991 20.6213 25.1424 20.6203 24.9839C20.6193 24.8254 20.6498 24.6683 20.71 24.5217C20.7702 24.3751 20.8589 24.2419 20.971 24.1299C21.083 24.0179 21.2163 23.9292 21.3629 23.8691C21.5095 23.809 21.6667 23.7786 21.8251 23.7797C21.9836 23.7808 22.1403 23.8134 22.2861 23.8756C22.4318 23.9377 22.5638 24.0282 22.6743 24.1418L24.0923 25.5606L27.9111 21.7418C28.1355 21.5174 28.4399 21.3913 28.7573 21.3913C29.0746 21.3913 29.379 21.5174 29.6034 21.7418C29.8279 21.9662 29.9539 22.2706 29.9539 22.588C29.9539 22.9054 29.8279 23.2097 29.6034 23.4342L24.9349 28.0992C24.7115 28.323 24.4085 28.4492 24.0923 28.4503Z" fill="white"/>
<defs>
<filter id="filter0_di_3514_54" x="-9.0625" y="0.5" width="69" height="69" filterUnits="userSpaceOnUse" color-interpolation-filters="sRGB">
<feFlood flood-opacity="0" result="BackgroundImageFix"/>
<feColorMatrix in="SourceAlpha" type="matrix" values="0 0 0 0 0 0 0 0 0 0 0 0 0 0 0 0 0 0 127 0" result="hardAlpha"/>
<feOffset dy="10"/>
<feGaussianBlur stdDeviation="13.5"/>
<feComposite in2="hardAlpha" operator="out"/>
<feColorMatrix type="matrix" values="0 0 0 0 0.116947 0 0 0 0 0.114219 0 0 0 0 0.179167 0 0 0 0.3 0"/>
<feBlend mode="normal" in2="BackgroundImageFix" result="effect1_dropShadow_3514_54"/>
<feBlend mode="normal" in="SourceGraphic" in2="effect1_dropShadow_3514_54" result="shape"/>
<feColorMatrix in="SourceAlpha" type="matrix" values="0 0 0 0 0 0 0 0 0 0 0 0 0 0 0 0 0 0 127 0" result="hardAlpha"/>
<feOffset dx="3" dy="5"/>
<feGaussianBlur stdDeviation="6"/>
<feComposite in2="hardAlpha" operator="arithmetic" k2="-1" k3="1"/>
<feColorMatrix type="matrix" values="0 0 0 0 1 0 0 0 0 1 0 0 0 0 1 0 0 0 0.36 0"/>
<feBlend mode="normal" in2="shape" result="effect2_innerShadow_3514_54"/>
</filter>
<linearGradient id="paint0_linear_3514_54" x1="32.9375" y1="17.5" x2="18.0169" y2="18.3981" gradientUnits="userSpaceOnUse">
<stop stop-color="#6BAB2B"/>
<stop offset="1" stop-color="#84D52C" stop-opacity="0"/>
</linearGradient>
</defs>
</svg>
